<svg width="46" height="46" viewBox="0 0 46 46" fill="none" xmlns="http://www.w3.org/2000/svg">
<g clip-path="url(#clip0_1_7403)">
<circle cx="23.7188" cy="22.2815" r="16.5312" fill="white"/>
<path d="M27.4023 23.0003C27.4023 25.4317 25.4314 27.4026 23 27.4026C20.5686 27.4026 18.5977 25.4317 18.5977 23.0003C18.5977 20.5689 20.5686 18.5979 23 18.5979C25.4314 18.5979 27.4023 20.5689 27.4023 23.0003Z" fill="url(#paint0_linear_1_7403)"/>
<path d="M33.2955 15.2114C33.0839 14.6379 32.7463 14.1189 32.3076 13.6928C31.8815 13.2541 31.3628 12.9165 30.789 12.7049C30.3237 12.5241 29.6246 12.309 28.3369 12.2504C26.944 12.1869 26.5264 12.1732 23 12.1732C19.4733 12.1732 19.0556 12.1865 17.6631 12.25C16.3754 12.309 15.676 12.5241 15.211 12.7049C14.6372 12.9165 14.1181 13.2541 13.6924 13.6928C13.2537 14.1189 12.9161 14.6376 12.7041 15.2114C12.5234 15.6767 12.3082 16.3762 12.2496 17.6638C12.1861 19.0564 12.1724 19.474 12.1724 23.0008C12.1724 26.5271 12.1861 26.9448 12.2496 28.3377C12.3082 29.6253 12.5234 30.3244 12.7041 30.7898C12.9161 31.3636 13.2534 31.8823 13.692 32.3084C14.1181 32.7471 14.6368 33.0847 15.2106 33.2963C15.676 33.4774 16.3754 33.6925 17.6631 33.7511C19.0556 33.8147 19.4729 33.828 22.9996 33.828C26.5267 33.828 26.9444 33.8147 28.3366 33.7511C29.6242 33.6925 30.3237 33.4774 30.789 33.2963C31.9409 32.852 32.8512 31.9416 33.2955 30.7898C33.4763 30.3244 33.6914 29.6253 33.7504 28.3377C33.8139 26.9448 33.8272 26.5271 33.8272 23.0008C33.8272 19.474 33.8139 19.0564 33.7504 17.6638C33.6918 16.3762 33.4766 15.6767 33.2955 15.2114ZM23 29.7822C19.2543 29.7822 16.2178 26.7461 16.2178 23.0004C16.2178 19.2547 19.2543 16.2186 23 16.2186C26.7454 16.2186 29.7818 19.2547 29.7818 23.0004C29.7818 26.7461 26.7454 29.7822 23 29.7822ZM30.0499 17.5354C29.1747 17.5354 28.465 16.8258 28.465 15.9505C28.465 15.0752 29.1747 14.3656 30.0499 14.3656C30.9252 14.3656 31.6348 15.0752 31.6348 15.9505C31.6345 16.8258 30.9252 17.5354 30.0499 17.5354Z" fill="url(#paint1_linear_1_7403)"/>
<path d="M23 0.000274658C10.2994 0.000274658 0 10.2997 0 23.0003C0 35.7009 10.2994 46.0003 23 46.0003C35.7006 46.0003 46 35.7009 46 23.0003C46 10.2997 35.7006 0.000274658 23 0.000274658ZM36.1274 28.4453C36.0635 29.8512 35.8399 30.8111 35.5135 31.6512C34.8274 33.4253 33.425 34.8277 31.651 35.5138C30.8111 35.8402 29.8509 36.0634 28.4454 36.1276C27.037 36.1919 26.5871 36.2073 23.0004 36.2073C19.4133 36.2073 18.9637 36.1919 17.555 36.1276C16.1494 36.0634 15.1892 35.8402 14.3494 35.5138C13.4678 35.1822 12.6697 34.6624 12.0099 33.9903C11.3382 33.3309 10.8185 32.5325 10.4868 31.6512C10.1604 30.8114 9.93686 29.8512 9.87299 28.4456C9.80806 27.0369 9.79297 26.587 9.79297 23.0003C9.79297 19.4135 9.80806 18.9636 9.87263 17.5553C9.93651 16.1493 10.1597 15.1895 10.4861 14.3493C10.8177 13.4681 11.3379 12.6696 12.0099 12.0102C12.6694 11.3381 13.4678 10.8184 14.349 10.4867C15.1892 10.1603 16.1491 9.93713 17.555 9.87291C18.9633 9.80869 19.4133 9.79324 23 9.79324C26.5867 9.79324 27.0367 9.80869 28.445 9.87326C29.8509 9.93713 30.8108 10.1603 31.651 10.4864C32.5322 10.818 33.3306 11.3381 33.9904 12.0102C34.6621 12.67 35.1823 13.4681 35.5135 14.3493C35.8403 15.1895 36.0635 16.1493 36.1277 17.5553C36.1919 18.9636 36.207 19.4135 36.207 23.0003C36.207 26.587 36.1919 27.0369 36.1274 28.4453Z" fill="url(#paint2_linear_1_7403)"/>
</g>
<defs>
<linearGradient id="paint0_linear_1_7403" x1="8.625" y1="36.6565" x2="36.6563" y2="5.75027" gradientUnits="userSpaceOnUse">
<stop stop-color="#FFDA7B"/>
<stop offset="0.385417" stop-color="#FF6142"/>
<stop offset="0.71875" stop-color="#FF6296"/>
<stop offset="1" stop-color="#BF7CF1"/>
</linearGradient>
<linearGradient id="paint1_linear_1_7403" x1="12.2188" y1="33.7817" x2="35.9375" y2="10.7817" gradientUnits="userSpaceOnUse">
<stop stop-color="#FFAA65"/>
<stop offset="0.385417" stop-color="#FF6242"/>
<stop offset="0.71875" stop-color="#FF6296"/>
<stop offset="1" stop-color="#BF7CF1"/>
</linearGradient>
<linearGradient id="paint2_linear_1_7403" x1="5.03125" y1="38.8128" x2="42.4063" y2="7.18778" gradientUnits="userSpaceOnUse">
<stop stop-color="#FFDA7B"/>
<stop offset="0.385417" stop-color="#FF6142"/>
<stop offset="0.71875" stop-color="#FF6296"/>
<stop offset="1" stop-color="#BF7CF1"/>
</linearGradient>
<clipPath id="clip0_1_7403">
<rect width="46" height="46" fill="white" transform="translate(0 0.000274658)"/>
</clipPath>
</defs>
</svg>
