<svg width="28" height="28" viewBox="0 0 28 28" fill="none" xmlns="http://www.w3.org/2000/svg">
<g clip-path="url(#clip0_1_7383)">
<path d="M23.9045 23.9048C29.3652 18.4442 29.3652 9.55637 23.9045 4.09575C18.4439 -1.36488 9.5561 -1.36488 4.09547 4.09575C-1.36516 9.55637 -1.36516 18.4442 4.09547 23.9048C9.5561 29.3654 18.4439 29.3654 23.9045 23.9048ZM5.08364 5.08391C10.0016 0.165921 17.9984 0.165921 22.9164 5.08391C27.8344 10.0019 27.8344 17.9986 22.9164 22.9166C17.9984 27.8346 10.0016 27.8346 5.08364 22.9166C0.165647 17.9986 0.171359 10.0019 5.08364 5.08391Z" fill="url(#paint0_linear_1_7383)"/>
<path d="M13.9999 19.2438C14.1941 19.2438 14.3655 19.1639 14.4968 19.0382C14.6225 18.9125 14.7025 18.7355 14.7025 18.5413V14.6971H18.5466C18.7408 14.6971 18.9122 14.6171 19.0435 14.4915C19.1692 14.3658 19.2492 14.1887 19.2492 13.9945C19.2492 13.6061 18.935 13.292 18.5523 13.2977H14.7082V9.45354C14.7082 9.06513 14.394 8.75097 14.0113 8.75668C13.6229 8.75668 13.3087 9.07084 13.3145 9.45354V13.2977H9.47031C9.0819 13.2977 8.76774 13.6118 8.77345 13.9945C8.77345 14.383 9.08761 14.6971 9.47031 14.6914H13.3145V18.5355C13.2973 18.9297 13.6115 19.2438 13.9999 19.2438Z" fill="url(#paint1_linear_1_7383)"/>
</g>
<defs>
<linearGradient id="paint0_linear_1_7383" x1="14" y1="0.000274658" x2="14" y2="28.0003" gradientUnits="userSpaceOnUse">
<stop stop-color="#95B8FC"/>
<stop offset="0.515625" stop-color="#D86AE0"/>
<stop offset="1" stop-color="#9D26F5"/>
</linearGradient>
<linearGradient id="paint1_linear_1_7383" x1="14.0113" y1="8.75661" x2="14.0113" y2="19.2438" gradientUnits="userSpaceOnUse">
<stop stop-color="#95B8FC"/>
<stop offset="0.515625" stop-color="#D86AE0"/>
<stop offset="1" stop-color="#9D26F5"/>
</linearGradient>
<clipPath id="clip0_1_7383">
<rect width="28" height="28" fill="white" transform="translate(0 0.000274658)"/>
</clipPath>
</defs>
</svg>
