<svg width="46" height="46" viewBox="0 0 46 46" fill="none" xmlns="http://www.w3.org/2000/svg">
<g clip-path="url(#clip0_1_7397)">
<rect x="8.625" y="10.0628" width="28.75" height="28.75" fill="white"/>
<path d="M23 0.000274658C10.2994 0.000274658 0 10.2997 0 23.0003C0 35.7009 10.2994 46.0003 23 46.0003C35.7006 46.0003 46 35.7009 46 23.0003C46 10.2997 35.7006 0.000274658 23 0.000274658ZM33.5015 17.9332C33.5117 18.1596 33.5166 18.387 33.5166 18.6155C33.5166 25.5914 28.2067 33.6355 18.4962 33.6359H18.4966H18.4962C15.5149 33.6359 12.7406 32.762 10.4043 31.2645C10.8174 31.3133 11.2378 31.3375 11.6635 31.3375C14.1371 31.3375 16.4133 30.4938 18.2204 29.0777C15.9094 29.0349 13.9609 27.5086 13.2885 25.411C13.6103 25.4727 13.9412 25.5064 14.2806 25.5064C14.7625 25.5064 15.2292 25.4415 15.6728 25.3204C13.2572 24.8368 11.4375 22.702 11.4375 20.1456C11.4375 20.1218 11.4375 20.1004 11.4382 20.0782C12.1496 20.4738 12.9631 20.7117 13.8293 20.7384C12.4118 19.7926 11.48 18.1757 11.48 16.3441C11.48 15.3769 11.7415 14.4707 12.1949 13.6906C14.7982 16.8849 18.6889 18.9857 23.0765 19.2065C22.986 18.8197 22.9393 18.4168 22.9393 18.0027C22.9393 15.0884 25.3036 12.724 28.219 12.724C29.7376 12.724 31.1091 13.3659 32.0725 14.3921C33.2752 14.1549 34.4045 13.7155 35.4248 13.1108C35.0299 14.343 34.1933 15.3769 33.1032 16.0307C34.1712 15.903 35.1889 15.6198 36.1347 15.1993C35.4283 16.2581 34.5323 17.1882 33.5015 17.9332Z" fill="#1D9BF0"/>
</g>
<defs>
<clipPath id="clip0_1_7397">
<rect width="46" height="46" fill="white" transform="translate(0 0.000274658)"/>
</clipPath>
</defs>
</svg>
